<svg width="249" height="249" viewBox="0 0 249 249" fill="none" xmlns="http://www.w3.org/2000/svg">
<path d="M233.071 82.8285C232.096 70.0671 222.338 53.7064 212.581 45.8532C201.608 37.8163 190.207 30.3884 178.429 23.6026C166.741 16.6325 154.689 10.2973 142.327 4.62409C135.723 1.91397 128.642 0.578234 121.511 0.697508C114.377 0.546721 107.29 1.88365 100.695 4.62409C88.3342 10.3013 76.2829 16.6364 64.5919 23.6026C45.7274 35.0551 30.4407 45.8532 30.4407 45.8532C22.3171 52.693 16.1873 61.5202 12.58 71.3957C11.9345 73.1627 13.2853 74.9741 15.1665 74.9741H30.7743C32.8638 74.9741 34.7589 73.802 35.8562 72.0237C38.6341 67.5223 42.1358 63.4579 46.2597 60.0095C46.2597 60.0095 58.8817 51.1551 74.4577 41.764C84.1107 36.0518 94.0612 30.857 104.267 26.2017C109.712 23.9545 115.564 22.8582 121.454 22.9819C127.342 22.8841 133.189 23.9794 138.642 26.2017C148.849 30.8537 158.8 36.0486 168.451 41.764C178.176 47.3284 187.589 53.4193 196.649 60.0095C204.705 66.4491 212.762 79.865 213.568 90.3293C213.568 90.3293 215.448 105.892 215.716 124.325C215.7 135.709 215.072 147.084 213.836 158.401C211.962 170.251 205.857 181.021 196.649 188.721C196.649 188.721 184.027 197.844 168.451 207.235C158.798 212.947 148.847 218.142 138.642 222.797C133.196 225.044 127.344 226.141 121.454 226.017C115.572 226.14 109.725 225.072 104.267 222.878C94.0596 218.226 84.1089 213.031 74.4577 207.315C58.8817 198.193 46.2597 188.801 46.2597 188.801C42.6658 185.929 39.0719 181.668 36.0978 176.9C35.0102 175.157 33.1366 174.025 31.0816 174.025H15.2324C13.3272 174.025 11.9774 175.877 12.6806 177.648C16.5811 187.471 23.5109 197.339 30.4407 202.916C30.4407 202.916 45.7274 214.369 64.5919 225.494C76.2808 232.464 88.3323 238.8 100.695 244.473C107.305 247.149 114.386 248.452 121.511 248.301C128.644 248.452 135.732 247.115 142.327 244.375C154.687 238.697 166.738 232.362 178.429 225.396C197.294 213.944 212.581 202.818 212.581 202.818C223.733 193.429 231.127 180.294 233.397 165.843C234.893 152.042 235.653 138.17 235.673 124.287C235.348 101.807 233.071 82.8285 233.071 82.8285Z" fill="url(#paint0_linear_16216_43696)"/>
<path d="M10.5896 97.2669C10.5896 94.5317 12.8069 92.3143 15.5422 92.3143H92.307C95.0423 92.3143 97.2596 94.5317 97.2596 97.2669V112.124C97.2596 114.86 95.0423 117.077 92.307 117.077H10.5896V97.2669Z" fill="#0066B3"/>
<path d="M10.5896 131.928H166.596C169.331 131.928 171.548 134.145 171.548 136.881V151.738C171.548 154.473 169.331 156.691 166.596 156.691H15.5422C12.8069 156.691 10.5896 154.473 10.5896 151.738V131.928Z" fill="#EE2F53"/>
<defs>
<linearGradient id="paint0_linear_16216_43696" x1="123.528" y1="0.686035" x2="123.528" y2="248.313" gradientUnits="userSpaceOnUse">
<stop stop-color="#0066B3"/>
<stop offset="0.354167" stop-color="#0066B3"/>
<stop offset="0.6875" stop-color="#EE2F53"/>
<stop offset="1" stop-color="#EE2F53"/>
</linearGradient>
</defs>
</svg>
